<svg viewBox="0 0 1000 1000"
     xmlns="http://www.w3.org/2000/svg"
     version="1.1">
  <title>Technexus Logo</title>
  <desc>Official logo of Technexus</desc>
  <circle cx="500" cy="500" r="500" fill="black"/>
  <path d="M664.881 222.4V332H516.081V784H379.281V332H230.481V222.4H664.881ZM717.538 790.4C693.538 790.4 673.804 783.467 658.338 769.6C643.404 755.2 635.938 737.6 635.938 716.8C635.938 695.467 643.404 677.6 658.338 663.2C673.804 648.8 693.538 641.6 717.538 641.6C741.004 641.6 760.204 648.8 775.138 663.2C790.604 677.6 798.338 695.467 798.338 716.8C798.338 737.6 790.604 755.2 775.138 769.6C760.204 783.467 741.004 790.4 717.538 790.4Z" fill="white"/>
</svg>